<svg xmlns="http://www.w3.org/2000/svg" fill="none" viewBox="0 0 24 24" id="Polymer-Fill--Streamline-Rounded-Fill-Material" height="24" width="24"><desc>Polymer Fill Streamline Icon: https://streamlinehq.com</desc><path fill="#000000" d="M8.0002 20h-2.175c-0.28335 0 -0.5375 -0.07085 -0.7625 -0.2125 -0.225005 -0.14165 -0.40417 -0.32915 -0.537505 -0.5625l-3.625 -6.5c-0.133335 -0.23335 -0.2 -0.475 -0.2 -0.725s0.066665 -0.49165 0.2 -0.725l3.775 -6.7c0.1 -0.183335 0.241665 -0.325 0.425005 -0.425 0.18335 -0.1 0.375 -0.15 0.575 -0.15h1.775c0.21665 0 0.375 0.091665 0.475 0.275 0.1 0.183335 0.1 0.366665 0 0.55L3.950195 12l3.000005 5.4 7.775 -12.675c0.13335 -0.233335 0.31665 -0.4125 0.55 -0.5375 0.23335 -0.125 0.48335 -0.1875 0.75 -0.1875h2.075c0.28335 0 0.5375 0.066665 0.7625 0.2 0.225 0.133335 0.40415 0.316665 0.5375 0.55l3.675 6.525c0.13335 0.23335 0.2 0.475 0.2 0.725s-0.06665 0.49165 -0.2 0.725l-3.75 6.7c-0.1 0.18335 -0.24165 0.325 -0.425 0.425 -0.18335 0.1 -0.375 0.15 -0.575 0.15h-1.775c-0.21665 0 -0.375 -0.09165 -0.475 -0.275 -0.1 -0.18335 -0.1 -0.36665 0 -0.55l3.975 -7.175 -3.025 -5.35 -7.725 12.625c-0.13335 0.23335 -0.31665 0.4125 -0.55 0.5375 -0.23335 0.125 -0.48335 0.1875 -0.75 0.1875Z" stroke-width="0.5"></path></svg>