<svg xmlns="http://www.w3.org/2000/svg" fill="none" viewBox="0 0 48 48" id="Finance-Mode-Fill--Streamline-Rounded-Fill-Material"><desc>Finance Mode Fill Streamline Icon: https://streamlinehq.com</desc><path fill="#000000" d="M15.9002 24.15V14.5c0 -0.625 0.2197 -1.1563 0.659 -1.594 0.439 -0.4373 0.9723 -0.656 1.6 -0.656 0.6273 0 1.1577 0.2187 1.591 0.656 0.4333 0.4377 0.65 0.969 0.65 1.594v9.65c0 0.625 -0.2197 1.1562 -0.659 1.5935 -0.439 0.4377 -0.9723 0.6565 -1.6 0.6565 -0.6273 0 -1.1577 -0.2188 -1.591 -0.6565 -0.4333 -0.4373 -0.65 -0.9685 -0.65 -1.5935Zm9.7 1.95V6.25c0 -0.625 0.2197 -1.15633 0.659 -1.594 0.439 -0.43733 0.9723 -0.656 1.6 -0.656 0.6273 0 1.1577 0.21867 1.591 0.656 0.4333 0.43767 0.65 0.969 0.65 1.594V26.1c0 0.75 -0.2303 1.3125 -0.691 1.6875 -0.4607 0.375 -0.9773 0.5625 -1.55 0.5625 -0.5727 0 -1.0923 -0.1875 -1.559 -0.5625 -0.4667 -0.375 -0.7 -0.9375 -0.7 -1.6875Zm-19.4 5v-8.3c0 -0.625 0.21966 -1.1563 0.65899 -1.594 0.439 -0.4373 0.97234 -0.656 1.6 -0.656 0.62734 0 1.15767 0.2187 1.59101 0.656 0.4333 0.4377 0.65 0.969 0.65 1.594v8.3c0 0.75 -0.2303 1.3125 -0.691 1.6875 -0.46067 0.375 -0.97734 0.5625 -1.55001 0.5625 -0.57266 0 -1.09233 -0.1875 -1.55899 -0.5625 -0.46667 -0.375 -0.7 -0.9375 -0.7 -1.6875Zm3.4315 11c-0.65434 0 -1.1065 -0.3167 -1.3565 -0.95s-0.14167 -1.1833 0.325 -1.65l8.7 -8.7c0.2667 -0.2667 0.6 -0.4083 1 -0.425 0.4 -0.0167 0.75 0.1083 1.05 0.375l6.4 5.65 13.1 -13.1h-2.9c-0.425 0 -0.7812 -0.1447 -1.0685 -0.434 -0.2877 -0.289 -0.4315 -0.6473 -0.4315 -1.075 0 -0.4273 0.1438 -0.7827 0.4315 -1.066 0.2873 -0.2833 0.6435 -0.425 1.0685 -0.425h6.55c0.425 0 0.7813 0.1437 1.069 0.431 0.2873 0.2877 0.431 0.644 0.431 1.069v6.5c0 0.425 -0.1447 0.7812 -0.434 1.0685 -0.289 0.2877 -0.6473 0.4315 -1.075 0.4315 -0.4273 0 -0.7827 -0.1438 -1.066 -0.4315 -0.2833 -0.2873 -0.425 -0.6435 -0.425 -1.0685v-2.9l-14.15 14.15c-0.2667 0.2667 -0.6 0.4083 -1 0.425 -0.4 0.0167 -0.75 -0.1083 -1.05 -0.375l-6.4 -5.6 -7.65 7.65c-0.1667 0.1667 -0.3443 0.2833 -0.533 0.35 -0.189 0.0667 -0.38417 0.1 -0.5855 0.1Z" stroke-width="1"></path></svg>